<?xml version="1.0" standalone="no"?>
<!DOCTYPE svg PUBLIC "-//W3C//DTD SVG 20010904//EN"
 "http://www.w3.org/TR/2001/REC-SVG-20010904/DTD/svg10.dtd">
<svg version="1.0" xmlns="http://www.w3.org/2000/svg"
 width="1024.000000pt" height="1024.000000pt" viewBox="0 0 1024.000000 1024.000000"
 preserveAspectRatio="xMidYMid meet">
<metadata>
Created by potrace 1.14, written by Peter Selinger 2001-2017
</metadata>
<g transform="translate(0.000000,1024.000000) scale(0.100000,-0.100000)"
fill="#000000" stroke="none">
<path d="M5080 8874 c-864 -78 -1707 -461 -2309 -1048 -309 -302 -531 -599
-712 -951 -110 -213 -147 -299 -215 -500 -152 -444 -212 -837 -201 -1305 8
-330 42 -564 123 -850 174 -617 447 -1103 894 -1589 128 -140 260 -257 452
-404 529 -404 1120 -645 1820 -744 156 -22 676 -25 838 -5 612 76 1117 253
1625 570 66 41 139 89 162 106 23 17 61 45 84 61 77 55 184 148 181 157 -1 5
2 7 7 3 11 -6 304 280 393 385 144 170 324 426 422 600 331 588 503 1267 483
1900 -25 754 -264 1464 -698 2065 -105 146 -184 241 -197 238 -6 -2 -9 3 -6
10 6 17 -194 227 -339 355 -488 431 -1145 759 -1767 881 -283 55 -362 63 -690
66 -168 1 -325 1 -350 -1z m700 -388 c522 -72 931 -214 1349 -467 36 -22 70
-41 75 -42 5 -1 18 -10 30 -20 11 -10 53 -39 91 -65 39 -25 100 -69 136 -98
37 -29 69 -51 73 -48 3 2 4 1 2 -2 -3 -3 28 -33 67 -67 84 -70 304 -291 361
-360 21 -26 43 -44 49 -40 6 3 7 1 3 -5 -4 -7 16 -41 46 -79 308 -392 537
-892 627 -1368 52 -276 55 -316 55 -635 0 -263 -3 -324 -22 -447 -35 -226 -99
-489 -158 -655 -111 -310 -297 -654 -488 -903 -33 -44 -63 -82 -66 -85 -3 -3
-44 -50 -92 -105 -247 -285 -523 -508 -899 -728 -253 -148 -614 -286 -904
-346 -322 -66 -584 -88 -885 -72 -695 36 -1228 219 -1810 622 -143 99 -256
195 -405 344 -501 500 -799 1051 -940 1737 -112 545 -60 1230 133 1753 61 164
78 204 152 350 206 406 476 746 830 1045 36 30 69 61 73 67 4 7 13 13 18 13 6
0 40 24 77 53 69 54 139 104 170 122 10 6 47 29 82 51 92 58 360 196 452 233
43 17 86 35 95 40 43 21 95 41 109 41 8 0 40 9 72 20 182 65 587 146 817 164
105 8 525 -4 625 -18z"/>
<path d="M5240 7620 c-266 -42 -468 -150 -620 -332 -138 -165 -217 -354 -241
-578 -29 -281 80 -582 290 -791 79 -79 242 -193 292 -204 40 -9 36 -23 -8 -31
-61 -11 -231 -72 -328 -118 -303 -142 -574 -399 -742 -701 -138 -250 -198
-468 -208 -759 l-5 -145 37 -48 c117 -154 316 -357 325 -330 2 6 5 138 7 292
3 349 11 412 71 598 102 313 357 609 655 760 181 92 391 140 615 140 290 1
522 -71 763 -236 284 -194 471 -474 549 -822 18 -77 21 -137 25 -424 l5 -333
75 73 c79 78 225 243 261 295 20 29 21 41 18 200 -5 253 -49 430 -168 669
-215 432 -625 767 -1075 881 -40 10 -73 21 -73 24 0 3 28 18 63 35 240 115
416 319 500 580 43 131 50 191 44 357 -4 112 -11 174 -26 231 -69 250 -254
484 -484 611 -158 87 -436 135 -617 106z m315 -382 c169 -55 324 -186 394
-330 11 -24 30 -81 42 -128 76 -304 -91 -625 -381 -733 -307 -115 -639 5 -789
284 -53 98 -74 182 -74 299 0 267 148 481 407 589 41 17 98 35 128 40 73 13
201 3 273 -21z"/>
<path d="M4522 4548 c-6 -6 -9 -16 -8 -22 2 -6 1 -7 -2 -3 -2 5 -13 1 -23 -9
-10 -9 -16 -21 -12 -27 3 -5 2 -7 -4 -4 -5 3 -17 -2 -25 -12 -9 -11 -22 -23
-30 -27 -30 -18 -129 -146 -124 -160 3 -7 1 -13 -5 -11 -6 1 -16 -7 -22 -18
-7 -11 -15 -22 -19 -25 -4 -3 -21 -36 -38 -73 l-30 -67 0 -314 0 -315 83 -60
c73 -54 234 -149 279 -166 16 -7 17 33 18 653 0 555 -2 661 -14 665 -7 3 -18
1 -24 -5z"/>
<path d="M6196 4436 c-11 -192 -7 -1206 4 -1206 19 0 151 76 265 153 l110 73
3 316 2 315 -41 82 c-24 49 -45 79 -51 75 -7 -4 -8 -2 -4 4 10 17 -63 111
-160 207 -119 117 -120 117 -128 -19z"/>
</g>
</svg>
